<?xml version="1.0" encoding="utf-8"?>
<!-- Generator: Adobe Illustrator 18.0.0, SVG Export Plug-In . SVG Version: 6.00 Build 0)  -->
<!DOCTYPE svg PUBLIC "-//W3C//DTD SVG 1.1//EN" "http://www.w3.org/Graphics/SVG/1.1/DTD/svg11.dtd">
<svg version="1.1" id="Layer_2" xmlns="http://www.w3.org/2000/svg" xmlns:xlink="http://www.w3.org/1999/xlink" x="0px" y="0px"
	 viewBox="0 0 261.1 60.7" enable-background="new 0 0 261.1 60.7" xml:space="preserve">
<path fill="none" d="M77,52.6v-30c0,0,2-9.3,11.7-9.3s11,5.7,11,5.7s1.3-5.6,10.8-5.7c9.5,0,11.5,9.2,11.5,9.2v30.2h-11.7V26.9
	c0,0-0.3-2.3-2.3-2.3s-2.5,2.5-2.5,2.5v25.5H94V26.8c0,0-0.5-1.8-2.8-1.8s-2.7,2.2-2.7,2.2v25.5H77z"/>
<path fill="#1D9D78" d="M77,52.6v-30c0,0,2-9.3,11.7-9.3s11,5.7,11,5.7s1.3-5.6,10.8-5.7c9.5,0,11.5,9.2,11.5,9.2v30.2h-11.7V26.9
	c0,0-0.3-2.3-2.3-2.3s-2.5,2.5-2.5,2.5v25.5H94V26.8c0,0-0.5-1.8-2.8-1.8s-2.7,2.2-2.7,2.2v25.5H77z"/>
<path fill="#1D9D78" d="M141.1,23.9c-8.3,0-15,6.7-15,15s6.7,15,15,15s15-6.7,15-15S149.4,23.9,141.1,23.9z M141.1,42.8
	c-2.1,0-3.9-1.7-3.9-3.9s1.7-3.9,3.9-3.9s3.9,1.7,3.9,3.9S143.3,42.8,141.1,42.8z"/>
<path fill="#1D9D78" d="M175.2,25.1l-2.7,17c0,0-0.4,0.9-0.7,0.9s-0.9-0.9-0.9-0.9l-2.7-17h-10.5c5.7,31,14,28.9,14,28.9
	s8.3,2.1,13.9-28.9H175.2z"/>
<rect x="189.6" y="25.1" fill="#1D9D78" width="10.8" height="28.8"/>
<circle fill="#1D9D78" cx="195" cy="16.7" r="5.4"/>
<path fill="#1D9D78" d="M226,43.7c-1.1-0.6-0.8,1.2-5.7,1.5c-5.3,0.4-4.9-4.3-4.9-4.3s0,0,19.6,0c0.1-0.7,0.1-1.3,0.1-2
	c0-8.1-6.6-14.8-14.8-14.8s-14.8,6.6-14.8,14.8s6.6,14.8,14.8,14.8c5.4,0,10.1-2.9,12.7-7.3C233,46.4,229.1,45.4,226,43.7z
	 M219.8,32.9c4.2,0,4.9,4,4.9,4h-9.8C214.9,36.9,215.6,32.9,219.8,32.9z"/>
<path fill="#1D9D78" d="M237.6,41.8c0,0,9.3,1.4,9.3-8.9s13.9-8.6,14.1-8.7c0.2-0.1,0,10.8,0,10.8s-8.3-1.5-8.3,6.9
	s-9.1,11.1-15.1,10.7V41.8z"/>
<path fill="#00DAA5" d="M47.4,0h-3.3l1,5l-3.3,0.4L39.6,0h-3.1l1.5,6.4l-22.6,6.8L9.7,0H7l1.2,5.2L4.6,5.4L2.9,0H0l17.2,60.7h2.9
	v-3.9l3.1-0.6l1.5,4.6h3.5l-1-4.8l23.4-5.8l3.1,10.6h2.9V57l2.9-0.6l1.5,4.4l3.9-1L47.4,0z M51.6,26.1l-3.4,0.4l-1-3.3l3.4-0.5
	L51.6,26.1z M49.8,19.1l-3.4,0.4l-1-3.3l3.4-0.5L49.8,19.1z M46.9,8.9l1,3.4l-3.4,0.4l-1-3.3L46.9,8.9z M5.6,9.2L9,8.7l1,3.4
	l-3.4,0.4L5.6,9.2z M7.4,15.3l3.4-0.5l1,3.4l-3.4,0.4L7.4,15.3z M9.6,22.5l3.4-0.5l1,3.4l-3.4,0.4L9.6,22.5z M11.9,29.3l3.4-0.5
	l1,3.4l-3.4,0.4L11.9,29.3z M14.1,36.2l3.4-0.5l1,3.4l-3.4,0.4L14.1,36.2z M16.6,46.4l-1-3.3l3.4-0.5l1,3.4L16.6,46.4z M18.8,53.5
	l-1-3.3l3.4-0.5l1,3.4L18.8,53.5z M25.3,48.9l-8.9-28.6l24-5.8l8.3,28L25.3,48.9z M50.4,33.4l-1-3.3l3.4-0.5l1,3.4L50.4,33.4z
	 M51.6,37.3l3.4-0.5l1,3.4l-3.4,0.4L51.6,37.3z M53.3,44.1l3.4-0.5l1,3.4l-3.4,0.4L53.3,44.1z M56,53.5l-1-3.3l3.4-0.5l1,3.4
	L56,53.5z"/>
</svg>
